<mxfile host="app.diagrams.net" agent="Mozilla/5.0 (Windows NT 10.0; Win64; x64) AppleWebKit/537.36 (KHTML, like Gecko) Chrome/128.0.0.0 Safari/537.36" version="24.7.13">
  <diagram name="Page-1" id="N100Fjga_rLqiOKCRjVZ">
    <mxGraphModel dx="1434" dy="746" grid="1" gridSize="10" guides="1" tooltips="1" connect="1" arrows="1" fold="1" page="1" pageScale="1" pageWidth="850" pageHeight="1100" math="0" shadow="0">
      <root>
        <mxCell id="0" />
        <mxCell id="1" parent="0" />
        <mxCell id="9EHxA4cnId4sZWRM31eS-1" value="" style="rounded=0;whiteSpace=wrap;html=1;" vertex="1" parent="1">
          <mxGeometry x="40" y="40" width="1120" height="680" as="geometry" />
        </mxCell>
        <mxCell id="9EHxA4cnId4sZWRM31eS-2" value="App" style="rounded=0;whiteSpace=wrap;html=1;fontSize=30;" vertex="1" parent="1">
          <mxGeometry x="50" y="50" width="1100" height="60" as="geometry" />
        </mxCell>
        <mxCell id="9EHxA4cnId4sZWRM31eS-4" value="Header" style="rounded=0;whiteSpace=wrap;html=1;fontSize=20;" vertex="1" parent="1">
          <mxGeometry x="50" y="120" width="1100" height="60" as="geometry" />
        </mxCell>
        <mxCell id="9EHxA4cnId4sZWRM31eS-5" value="" style="rounded=0;whiteSpace=wrap;html=1;" vertex="1" parent="1">
          <mxGeometry x="50" y="190" width="1100" height="520" as="geometry" />
        </mxCell>
        <mxCell id="9EHxA4cnId4sZWRM31eS-6" value="" style="rounded=0;whiteSpace=wrap;html=1;" vertex="1" parent="1">
          <mxGeometry x="60" y="260" width="360" height="290" as="geometry" />
        </mxCell>
        <mxCell id="9EHxA4cnId4sZWRM31eS-7" value="" style="rounded=0;whiteSpace=wrap;html=1;" vertex="1" parent="1">
          <mxGeometry x="430" y="260" width="360" height="440" as="geometry" />
        </mxCell>
        <mxCell id="9EHxA4cnId4sZWRM31eS-8" value="Coffee Control&lt;div style=&quot;font-size: 12px;&quot;&gt;Component which controls what child components should be displayed&lt;/div&gt;" style="rounded=0;whiteSpace=wrap;html=1;fontSize=18;" vertex="1" parent="1">
          <mxGeometry x="60" y="200" width="1080" height="50" as="geometry" />
        </mxCell>
        <mxCell id="9EHxA4cnId4sZWRM31eS-9" value="Coffee List&lt;div style=&quot;font-size: 14px;&quot;&gt;Clicking on coffee will display details&lt;/div&gt;" style="rounded=0;whiteSpace=wrap;html=1;fontSize=18;" vertex="1" parent="1">
          <mxGeometry x="70" y="270" width="340" height="60" as="geometry" />
        </mxCell>
        <mxCell id="9EHxA4cnId4sZWRM31eS-10" value="Coffee" style="rounded=0;whiteSpace=wrap;html=1;fontSize=16;" vertex="1" parent="1">
          <mxGeometry x="110" y="340" width="260" height="60" as="geometry" />
        </mxCell>
        <mxCell id="9EHxA4cnId4sZWRM31eS-11" value="Add to cart&lt;div style=&quot;font-size: 13px;&quot;&gt;When clicked removes one pound of beans from sack&lt;/div&gt;" style="rounded=0;whiteSpace=wrap;html=1;fontSize=16;" vertex="1" parent="1">
          <mxGeometry x="110" y="410" width="260" height="60" as="geometry" />
        </mxCell>
        <mxCell id="9EHxA4cnId4sZWRM31eS-12" value="&lt;font style=&quot;font-size: 16px;&quot;&gt;Restock&lt;/font&gt;&lt;div style=&quot;&quot;&gt;&lt;font style=&quot;font-size: 13px;&quot;&gt;When clicked add one burlap sack with 130 pounds of coffee beans&lt;/font&gt;&lt;/div&gt;" style="rounded=0;whiteSpace=wrap;html=1;fontSize=13;" vertex="1" parent="1">
          <mxGeometry x="110" y="480" width="260" height="60" as="geometry" />
        </mxCell>
        <mxCell id="9EHxA4cnId4sZWRM31eS-13" value="New Coffee Button&lt;div style=&quot;font-size: 14px;&quot;&gt;Clicking this button will show the create coffee form,&lt;/div&gt;&lt;div style=&quot;font-size: 14px;&quot;&gt;button lives in CoffeeControl&lt;/div&gt;" style="rounded=0;whiteSpace=wrap;html=1;fontSize=18;" vertex="1" parent="1">
          <mxGeometry x="60" y="630" width="360" height="70" as="geometry" />
        </mxCell>
        <mxCell id="9EHxA4cnId4sZWRM31eS-14" value="Reusable Form" style="rounded=0;whiteSpace=wrap;html=1;fontSize=18;" vertex="1" parent="1">
          <mxGeometry x="440" y="270" width="340" height="60" as="geometry" />
        </mxCell>
        <mxCell id="9EHxA4cnId4sZWRM31eS-15" value="" style="rounded=0;whiteSpace=wrap;html=1;" vertex="1" parent="1">
          <mxGeometry x="440" y="340" width="340" height="170" as="geometry" />
        </mxCell>
        <mxCell id="9EHxA4cnId4sZWRM31eS-16" value="New Coffee Form" style="rounded=0;whiteSpace=wrap;html=1;fontSize=18;" vertex="1" parent="1">
          <mxGeometry x="450" y="350" width="320" height="60" as="geometry" />
        </mxCell>
        <mxCell id="9EHxA4cnId4sZWRM31eS-17" value="Submit&lt;div style=&quot;font-size: 14px;&quot;&gt;Clicking this will add a new coffee then display coffee list component&lt;/div&gt;" style="rounded=0;whiteSpace=wrap;html=1;fontSize=18;" vertex="1" parent="1">
          <mxGeometry x="450" y="440" width="320" height="60" as="geometry" />
        </mxCell>
        <mxCell id="9EHxA4cnId4sZWRM31eS-19" value="" style="rounded=0;whiteSpace=wrap;html=1;" vertex="1" parent="1">
          <mxGeometry x="440" y="520" width="340" height="170" as="geometry" />
        </mxCell>
        <mxCell id="9EHxA4cnId4sZWRM31eS-20" value="Edit Coffee Form" style="rounded=0;whiteSpace=wrap;html=1;fontSize=18;" vertex="1" parent="1">
          <mxGeometry x="450" y="530" width="320" height="60" as="geometry" />
        </mxCell>
        <mxCell id="9EHxA4cnId4sZWRM31eS-21" value="Submit&lt;div style=&quot;font-size: 14px;&quot;&gt;Clicking this will edit coffee in coffee list then return back to coffee list&lt;/div&gt;" style="rounded=0;whiteSpace=wrap;html=1;fontSize=18;" vertex="1" parent="1">
          <mxGeometry x="450" y="620" width="320" height="60" as="geometry" />
        </mxCell>
        <mxCell id="9EHxA4cnId4sZWRM31eS-22" value="" style="rounded=0;whiteSpace=wrap;html=1;" vertex="1" parent="1">
          <mxGeometry x="800" y="260" width="340" height="440" as="geometry" />
        </mxCell>
        <mxCell id="9EHxA4cnId4sZWRM31eS-23" value="Coffee Details&lt;div style=&quot;font-size: 14px;&quot;&gt;Displays details about coffee products&lt;/div&gt;" style="rounded=0;whiteSpace=wrap;html=1;fontSize=18;" vertex="1" parent="1">
          <mxGeometry x="810" y="270" width="320" height="60" as="geometry" />
        </mxCell>
        <mxCell id="9EHxA4cnId4sZWRM31eS-24" value="Update Button&lt;div style=&quot;font-size: 14px;&quot;&gt;Clicking button will bring up the edit coffee form&lt;/div&gt;" style="rounded=0;whiteSpace=wrap;html=1;fontSize=18;" vertex="1" parent="1">
          <mxGeometry x="810" y="560" width="320" height="60" as="geometry" />
        </mxCell>
        <mxCell id="9EHxA4cnId4sZWRM31eS-25" value="Delete Button&lt;div style=&quot;font-size: 14px;&quot;&gt;Clicking button will remove coffee from coffee list&lt;/div&gt;" style="rounded=0;whiteSpace=wrap;html=1;fontSize=18;" vertex="1" parent="1">
          <mxGeometry x="810" y="630" width="320" height="60" as="geometry" />
        </mxCell>
      </root>
    </mxGraphModel>
  </diagram>
</mxfile>
